# xmcd CD database file
#
# Track frame offsets:
#	150
#	15092
#	24315
#	37207
#	48125
#	62325
#	73575
#	86257
#	98077
#	112647
#	125405
#	136065
#	146700
#	157525
#	169940
#	182837
#	192692
#	203805
#	215700
#	227925
#	238905
#	251632
#	263672
#
# Disc length: 3664 seconds
#
# Revision: 1
# Processed by: cddbd v1.5PL3 Copyright (c) Steve Scherf et al.
# Submitted via: CDex 1.51
#
DISCID=350e4e17
DTITLE=Frankie Laine and Guy Mitchell - Moonlight Gamblers
DYEAR=1986
DGENRE=Country
TTITLE0=Jezebel/Frankie Laine
TTITLE1=Rawhide/Frankie Laine
TTITLE2=Moonlight Gambler/Frankie Laine
TTITLE3=Hummingbird/Frankie Laine
TTITLE4=Don't Fence Me in/Frankie Laine
TTITLE5=Rose, Rose, I love You/Frankie Laine
TTITLE6=High Noon (Do not Forsake me)/Frankie Laine
TTITLE7=Mule Train/Frankie Laine
TTITLE8=Jealousy/Frankie Laine
TTITLE9=Granada/Frankie Laine
TTITLE10=The Love of a Woman/Frankie Laine
TTITLE11=Sixteen Tons/Frankie Laine
TTITLE12=Singing the Blues/Guy Mitchell
TTITLE13=Side by Side/Guy Mitchell
TTITLE14=I'm calling you/Guy Mitchell
TTITLE15=Rockabilly/Guy Mitchell
TTITLE16=Call Rosie on the Phone/Guy Mitchell
TTITLE17=My Heart cries for you/Guy Mitchell
TTITLE18=My Truly,Truly Fair/Guy Mitchell
TTITLE19=Cloud Lucky seven/Guy Mitchell
TTITLE20=Music, Music, Music/Guy Mitchell
TTITLE21=Chicka Boom/Guy Mitchell
TTITLE22=Heartaches by the Number/Guy Mitchell
EXTD=YEAR: 1986
EXTT0=
EXTT1=
EXTT2=
EXTT3=
EXTT4=
EXTT5=
EXTT6=
EXTT7=
EXTT8=
EXTT9=
EXTT10=
EXTT11=
EXTT12=
EXTT13=
EXTT14=
EXTT15=
EXTT16=
EXTT17=
EXTT18=
EXTT19=
EXTT20=
EXTT21=
EXTT22=
PLAYORDER=
